<?xml version="1.0" standalone="no"?>
<!DOCTYPE svg PUBLIC "-//W3C//DTD SVG 20010904//EN"
 "http://www.w3.org/TR/2001/REC-SVG-20010904/DTD/svg10.dtd">
<svg version="1.0" xmlns="http://www.w3.org/2000/svg"
 width="388.000000pt" height="552.000000pt" viewBox="0 0 388.000000 552.000000"
 preserveAspectRatio="xMidYMid meet">

<g transform="translate(0.000000,552.000000) scale(0.100000,-0.100000)"
fill="#000000" stroke="none">
<path d="M0 2760 l0 -2760 1940 0 1940 0 0 2760 0 2760 -1940 0 -1940 0 0
-2760z m3790 10 l0 -2570 -1840 0 -1840 0 0 2570 0 2570 1840 0 1840 0 0
-2570z"/>
<path d="M250 2770 l0 -2430 1700 0 1700 0 0 2430 0 2430 -1700 0 -1700 0 0
-2430z m1867 1987 c127 -132 218 -271 256 -392 32 -100 77 -405 77 -522 0 -28
4 -54 10 -58 5 -3 44 6 87 19 191 62 375 78 485 42 116 -37 178 -122 178 -244
0 -157 -97 -343 -299 -575 -41 -46 -74 -87 -75 -89 -1 -3 35 -48 80 -99 111
-130 160 -198 215 -304 84 -161 102 -281 55 -381 -102 -219 -486 -193 -1013
68 l-162 81 -163 -81 c-252 -124 -459 -194 -627 -210 -262 -25 -409 67 -410
258 -1 154 116 375 312 588 37 39 67 76 67 80 0 4 -16 24 -36 43 -49 46 -147
169 -202 252 -38 57 -49 67 -74 67 -34 0 -95 29 -122 59 -10 11 -25 43 -32 70
-17 68 -2 123 48 171 21 21 38 44 38 51 0 8 11 37 24 65 57 122 205 172 416
141 58 -9 146 -28 195 -43 50 -14 98 -29 108 -31 14 -5 17 2 17 43 0 77 29
308 54 435 38 186 119 328 286 501 99 103 104 102 207 -5z m-457 -2917 l0
-160 34 -14 c120 -50 550 -48 646 4 19 10 20 20 20 170 0 88 1 160 3 160 2 0
24 -7 50 -16 l47 -16 0 -160 0 -161 -35 -33 -36 -34 16 -52 c41 -140 -1 -275
-163 -518 -81 -120 -223 -301 -233 -298 -13 5 -165 203 -229 298 -162 241
-203 368 -165 514 l15 57 -35 33 -35 33 0 160 0 159 43 16 c23 9 45 17 50 17
4 1 7 -71 7 -159z"/>
<path d="M1946 4659 c-78 -86 -154 -200 -187 -278 -47 -112 -85 -370 -96 -656
l-6 -160 25 -12 c60 -27 149 -38 328 -38 178 0 268 11 327 38 22 10 23 15 23
121 -1 204 -43 554 -81 663 -24 71 -77 166 -130 235 -48 61 -130 148 -140 148
-4 0 -32 -28 -63 -61z"/>
<path d="M1045 3743 c-46 -11 -87 -38 -101 -65 -9 -17 -14 -31 -12 -31 87 -43
109 -66 127 -132 12 -44 2 -98 -27 -147 -15 -26 -14 -29 28 -90 50 -72 156
-202 193 -236 l25 -24 74 68 c40 37 103 92 141 122 l67 54 0 197 0 198 -102
32 c-57 17 -134 38 -173 46 -67 14 -197 18 -240 8z"/>
<path d="M2725 3733 c-38 -8 -113 -29 -165 -46 l-95 -32 -3 -196 -2 -196 57
-45 c32 -25 96 -80 143 -122 l85 -77 67 72 c138 148 254 339 280 459 9 45 9
64 -3 100 -12 39 -21 48 -68 73 -48 23 -66 27 -140 26 -47 0 -117 -7 -156 -16z"/>
<path d="M1660 3435 l0 -73 40 -16 c124 -50 566 -43 651 10 5 3 9 38 9 79 l0
73 -47 -14 c-128 -39 -454 -39 -600 -1 l-53 14 0 -72z"/>
<path d="M1660 3074 c0 -129 -3 -234 -6 -234 -3 0 -25 17 -50 37 l-44 37 0 99
0 98 -28 -20 c-15 -10 -60 -50 -100 -87 l-73 -67 23 -25 c72 -78 336 -282 514
-398 l114 -75 94 61 c83 53 93 63 88 85 -12 67 37 153 105 181 40 17 103 18
137 3 30 -14 47 -3 161 103 l70 65 -55 50 c-30 28 -75 67 -100 88 l-45 38 -3
-99 c-1 -54 -8 -104 -14 -111 -6 -7 -28 -13 -49 -13 l-39 0 0 209 0 209 -47
-14 c-87 -27 -290 -39 -430 -26 -71 6 -149 18 -175 26 l-48 14 0 -234z"/>
<path d="M1200 2774 c-151 -175 -250 -342 -272 -460 -10 -54 -9 -66 8 -100 10
-21 34 -49 52 -61 118 -79 450 -9 807 170 93 46 98 50 80 64 -11 7 -72 49
-135 93 -131 90 -305 227 -396 312 -34 32 -65 58 -70 57 -5 0 -38 -34 -74 -75z"/>
<path d="M2682 2797 c-31 -29 -77 -70 -101 -91 -43 -38 -44 -40 -45 -101 -1
-52 -6 -68 -30 -99 -31 -41 -94 -75 -138 -76 -15 0 -46 7 -68 16 l-40 16 -65
-42 c-36 -23 -65 -44 -65 -47 0 -8 265 -130 360 -166 162 -60 262 -81 385 -81
99 -1 114 2 152 23 45 26 73 71 73 118 0 61 -39 167 -92 256 -67 109 -240 327
-261 327 -5 0 -34 -24 -65 -53z"/>
<path d="M1745 1497 c-27 -93 -18 -153 45 -278 45 -89 94 -167 167 -267 l54
-73 33 43 c66 86 167 248 204 325 32 69 36 87 37 158 0 90 -17 145 -43 139 -9
-1 -38 -6 -64 -9 l-46 -6 14 -27 c31 -60 7 -135 -84 -259 -44 -60 -46 -62 -65
-46 -33 30 -116 162 -129 205 -10 34 -9 48 4 84 l15 43 -46 6 c-25 3 -54 8
-63 10 -14 2 -21 -9 -33 -48z"/>
</g>
</svg>
